<mxfile host="app.diagrams.net" agent="Mozilla/5.0 (Windows NT 10.0; Win64; x64) AppleWebKit/537.36 (KHTML, like Gecko) Chrome/136.0.0.0 Safari/537.36" version="26.2.14">
  <diagram name="Page-1" id="mzEx97P1nOg631KJ1plJ">
    <mxGraphModel dx="1826" dy="757" grid="1" gridSize="10" guides="1" tooltips="1" connect="1" arrows="1" fold="1" page="0" pageScale="1" pageWidth="850" pageHeight="1100" math="0" shadow="0">
      <root>
        <mxCell id="0" />
        <mxCell id="1" parent="0" />
        <mxCell id="P_m-DRn7I6lrL5TYt4ih-1" value="Order" style="rounded=0;whiteSpace=wrap;html=1;" vertex="1" parent="1">
          <mxGeometry x="510" y="250" width="120" height="60" as="geometry" />
        </mxCell>
        <mxCell id="P_m-DRn7I6lrL5TYt4ih-2" value="Product" style="rounded=0;whiteSpace=wrap;html=1;" vertex="1" parent="1">
          <mxGeometry x="300" y="100" width="120" height="60" as="geometry" />
        </mxCell>
        <mxCell id="P_m-DRn7I6lrL5TYt4ih-26" style="edgeStyle=orthogonalEdgeStyle;rounded=0;orthogonalLoop=1;jettySize=auto;html=1;exitX=0;exitY=0.5;exitDx=0;exitDy=0;entryX=1;entryY=1;entryDx=0;entryDy=0;endArrow=none;startFill=0;shape=link;" edge="1" parent="1" source="P_m-DRn7I6lrL5TYt4ih-3" target="P_m-DRn7I6lrL5TYt4ih-14">
          <mxGeometry relative="1" as="geometry" />
        </mxCell>
        <mxCell id="P_m-DRn7I6lrL5TYt4ih-71" value="N" style="edgeLabel;html=1;align=center;verticalAlign=middle;resizable=0;points=[];" vertex="1" connectable="0" parent="P_m-DRn7I6lrL5TYt4ih-26">
          <mxGeometry x="-0.0829" y="-1" relative="1" as="geometry">
            <mxPoint as="offset" />
          </mxGeometry>
        </mxCell>
        <mxCell id="P_m-DRn7I6lrL5TYt4ih-3" value="Customer" style="rounded=0;whiteSpace=wrap;html=1;" vertex="1" parent="1">
          <mxGeometry x="80" y="410" width="120" height="60" as="geometry" />
        </mxCell>
        <mxCell id="P_m-DRn7I6lrL5TYt4ih-4" value="Account" style="rounded=0;whiteSpace=wrap;html=1;" vertex="1" parent="1">
          <mxGeometry x="-230" y="320" width="120" height="60" as="geometry" />
        </mxCell>
        <mxCell id="P_m-DRn7I6lrL5TYt4ih-5" value="Category" style="rounded=0;whiteSpace=wrap;html=1;" vertex="1" parent="1">
          <mxGeometry x="-130" y="100" width="120" height="60" as="geometry" />
        </mxCell>
        <mxCell id="P_m-DRn7I6lrL5TYt4ih-45" style="edgeStyle=orthogonalEdgeStyle;rounded=0;orthogonalLoop=1;jettySize=auto;html=1;exitX=0.5;exitY=1;exitDx=0;exitDy=0;entryX=0;entryY=0.25;entryDx=0;entryDy=0;endArrow=none;startFill=0;" edge="1" parent="1" source="P_m-DRn7I6lrL5TYt4ih-7" target="P_m-DRn7I6lrL5TYt4ih-5">
          <mxGeometry relative="1" as="geometry" />
        </mxCell>
        <mxCell id="P_m-DRn7I6lrL5TYt4ih-7" value="Size" style="ellipse;whiteSpace=wrap;html=1;" vertex="1" parent="1">
          <mxGeometry x="-240" y="40" width="80" height="40" as="geometry" />
        </mxCell>
        <mxCell id="P_m-DRn7I6lrL5TYt4ih-46" style="edgeStyle=orthogonalEdgeStyle;rounded=0;orthogonalLoop=1;jettySize=auto;html=1;exitX=0.5;exitY=1;exitDx=0;exitDy=0;entryX=0.25;entryY=0;entryDx=0;entryDy=0;endArrow=none;startFill=0;" edge="1" parent="1" source="P_m-DRn7I6lrL5TYt4ih-8" target="P_m-DRn7I6lrL5TYt4ih-5">
          <mxGeometry relative="1" as="geometry" />
        </mxCell>
        <mxCell id="P_m-DRn7I6lrL5TYt4ih-8" value="Color" style="ellipse;whiteSpace=wrap;html=1;" vertex="1" parent="1">
          <mxGeometry x="-120" y="20" width="80" height="40" as="geometry" />
        </mxCell>
        <mxCell id="P_m-DRn7I6lrL5TYt4ih-47" style="edgeStyle=orthogonalEdgeStyle;rounded=0;orthogonalLoop=1;jettySize=auto;html=1;exitX=0;exitY=1;exitDx=0;exitDy=0;entryX=0.75;entryY=0;entryDx=0;entryDy=0;endArrow=none;startFill=0;" edge="1" parent="1" source="P_m-DRn7I6lrL5TYt4ih-9" target="P_m-DRn7I6lrL5TYt4ih-5">
          <mxGeometry relative="1" as="geometry" />
        </mxCell>
        <mxCell id="P_m-DRn7I6lrL5TYt4ih-9" value="Types" style="ellipse;whiteSpace=wrap;html=1;" vertex="1" parent="1">
          <mxGeometry x="-20" y="20" width="80" height="40" as="geometry" />
        </mxCell>
        <mxCell id="P_m-DRn7I6lrL5TYt4ih-11" style="edgeStyle=orthogonalEdgeStyle;rounded=0;orthogonalLoop=1;jettySize=auto;html=1;entryX=1;entryY=0.5;entryDx=0;entryDy=0;endArrow=none;startFill=0;shape=link;" edge="1" parent="1" source="P_m-DRn7I6lrL5TYt4ih-10" target="P_m-DRn7I6lrL5TYt4ih-5">
          <mxGeometry relative="1" as="geometry" />
        </mxCell>
        <mxCell id="P_m-DRn7I6lrL5TYt4ih-81" value="M" style="edgeLabel;html=1;align=center;verticalAlign=middle;resizable=0;points=[];" vertex="1" connectable="0" parent="P_m-DRn7I6lrL5TYt4ih-11">
          <mxGeometry x="0.0545" relative="1" as="geometry">
            <mxPoint as="offset" />
          </mxGeometry>
        </mxCell>
        <mxCell id="P_m-DRn7I6lrL5TYt4ih-12" style="edgeStyle=orthogonalEdgeStyle;rounded=0;orthogonalLoop=1;jettySize=auto;html=1;exitX=1;exitY=0.5;exitDx=0;exitDy=0;entryX=0;entryY=0.5;entryDx=0;entryDy=0;endArrow=none;startFill=0;shape=link;" edge="1" parent="1" source="P_m-DRn7I6lrL5TYt4ih-10" target="P_m-DRn7I6lrL5TYt4ih-2">
          <mxGeometry relative="1" as="geometry" />
        </mxCell>
        <mxCell id="P_m-DRn7I6lrL5TYt4ih-82" value="N" style="edgeLabel;html=1;align=center;verticalAlign=middle;resizable=0;points=[];" vertex="1" connectable="0" parent="P_m-DRn7I6lrL5TYt4ih-12">
          <mxGeometry x="-0.2167" relative="1" as="geometry">
            <mxPoint as="offset" />
          </mxGeometry>
        </mxCell>
        <mxCell id="P_m-DRn7I6lrL5TYt4ih-10" value="Belong" style="shape=rhombus;perimeter=rhombusPerimeter;whiteSpace=wrap;html=1;align=center;" vertex="1" parent="1">
          <mxGeometry x="100" y="105" width="80" height="50" as="geometry" />
        </mxCell>
        <mxCell id="P_m-DRn7I6lrL5TYt4ih-24" style="edgeStyle=orthogonalEdgeStyle;rounded=0;orthogonalLoop=1;jettySize=auto;html=1;entryX=0;entryY=0.75;entryDx=0;entryDy=0;endArrow=none;startFill=0;" edge="1" parent="1" source="P_m-DRn7I6lrL5TYt4ih-13" target="P_m-DRn7I6lrL5TYt4ih-2">
          <mxGeometry relative="1" as="geometry" />
        </mxCell>
        <mxCell id="P_m-DRn7I6lrL5TYt4ih-80" value="N" style="edgeLabel;html=1;align=center;verticalAlign=middle;resizable=0;points=[];" vertex="1" connectable="0" parent="P_m-DRn7I6lrL5TYt4ih-24">
          <mxGeometry x="-0.06" relative="1" as="geometry">
            <mxPoint as="offset" />
          </mxGeometry>
        </mxCell>
        <mxCell id="P_m-DRn7I6lrL5TYt4ih-25" style="edgeStyle=orthogonalEdgeStyle;rounded=0;orthogonalLoop=1;jettySize=auto;html=1;exitX=0.5;exitY=1;exitDx=0;exitDy=0;entryX=0.5;entryY=0;entryDx=0;entryDy=0;endArrow=none;startFill=0;shape=link;" edge="1" parent="1" source="P_m-DRn7I6lrL5TYt4ih-13" target="P_m-DRn7I6lrL5TYt4ih-3">
          <mxGeometry relative="1" as="geometry" />
        </mxCell>
        <mxCell id="P_m-DRn7I6lrL5TYt4ih-79" value="M" style="edgeLabel;html=1;align=center;verticalAlign=middle;resizable=0;points=[];" vertex="1" connectable="0" parent="P_m-DRn7I6lrL5TYt4ih-25">
          <mxGeometry x="0.5875" y="2" relative="1" as="geometry">
            <mxPoint as="offset" />
          </mxGeometry>
        </mxCell>
        <mxCell id="P_m-DRn7I6lrL5TYt4ih-13" value="Choose" style="shape=rhombus;perimeter=rhombusPerimeter;whiteSpace=wrap;html=1;align=center;" vertex="1" parent="1">
          <mxGeometry x="140" y="240" width="80" height="50" as="geometry" />
        </mxCell>
        <mxCell id="P_m-DRn7I6lrL5TYt4ih-27" style="edgeStyle=orthogonalEdgeStyle;rounded=0;orthogonalLoop=1;jettySize=auto;html=1;exitX=0;exitY=0;exitDx=0;exitDy=0;entryX=1;entryY=0.5;entryDx=0;entryDy=0;endArrow=none;startFill=0;" edge="1" parent="1" source="P_m-DRn7I6lrL5TYt4ih-14" target="P_m-DRn7I6lrL5TYt4ih-4">
          <mxGeometry relative="1" as="geometry" />
        </mxCell>
        <mxCell id="P_m-DRn7I6lrL5TYt4ih-70" value="M" style="edgeLabel;html=1;align=center;verticalAlign=middle;resizable=0;points=[];" vertex="1" connectable="0" parent="P_m-DRn7I6lrL5TYt4ih-27">
          <mxGeometry x="0.2178" relative="1" as="geometry">
            <mxPoint y="1" as="offset" />
          </mxGeometry>
        </mxCell>
        <mxCell id="P_m-DRn7I6lrL5TYt4ih-14" value="Assign" style="shape=rhombus;perimeter=rhombusPerimeter;whiteSpace=wrap;html=1;align=center;" vertex="1" parent="1">
          <mxGeometry x="-50" y="370" width="80" height="50" as="geometry" />
        </mxCell>
        <mxCell id="P_m-DRn7I6lrL5TYt4ih-18" style="edgeStyle=orthogonalEdgeStyle;rounded=0;orthogonalLoop=1;jettySize=auto;html=1;exitX=0;exitY=1;exitDx=0;exitDy=0;entryX=1;entryY=0.5;entryDx=0;entryDy=0;endArrow=none;startFill=0;shape=link;" edge="1" parent="1" source="P_m-DRn7I6lrL5TYt4ih-15" target="P_m-DRn7I6lrL5TYt4ih-3">
          <mxGeometry relative="1" as="geometry" />
        </mxCell>
        <mxCell id="P_m-DRn7I6lrL5TYt4ih-72" value="M" style="edgeLabel;html=1;align=center;verticalAlign=middle;resizable=0;points=[];" vertex="1" connectable="0" parent="P_m-DRn7I6lrL5TYt4ih-18">
          <mxGeometry x="0.6043" y="-2" relative="1" as="geometry">
            <mxPoint as="offset" />
          </mxGeometry>
        </mxCell>
        <mxCell id="P_m-DRn7I6lrL5TYt4ih-15" value="Receive" style="shape=rhombus;perimeter=rhombusPerimeter;whiteSpace=wrap;html=1;align=center;" vertex="1" parent="1">
          <mxGeometry x="340" y="330" width="80" height="50" as="geometry" />
        </mxCell>
        <mxCell id="P_m-DRn7I6lrL5TYt4ih-22" style="edgeStyle=orthogonalEdgeStyle;rounded=0;orthogonalLoop=1;jettySize=auto;html=1;entryX=0;entryY=0.5;entryDx=0;entryDy=0;endArrow=none;startFill=0;" edge="1" parent="1" source="P_m-DRn7I6lrL5TYt4ih-16" target="P_m-DRn7I6lrL5TYt4ih-1">
          <mxGeometry relative="1" as="geometry" />
        </mxCell>
        <mxCell id="P_m-DRn7I6lrL5TYt4ih-77" value="1" style="edgeLabel;html=1;align=center;verticalAlign=middle;resizable=0;points=[];" vertex="1" connectable="0" parent="P_m-DRn7I6lrL5TYt4ih-22">
          <mxGeometry x="-0.5742" y="-3" relative="1" as="geometry">
            <mxPoint as="offset" />
          </mxGeometry>
        </mxCell>
        <mxCell id="P_m-DRn7I6lrL5TYt4ih-23" style="edgeStyle=orthogonalEdgeStyle;rounded=0;orthogonalLoop=1;jettySize=auto;html=1;entryX=0.25;entryY=1;entryDx=0;entryDy=0;endArrow=none;startFill=0;shape=link;" edge="1" parent="1" source="P_m-DRn7I6lrL5TYt4ih-16" target="P_m-DRn7I6lrL5TYt4ih-2">
          <mxGeometry relative="1" as="geometry" />
        </mxCell>
        <mxCell id="P_m-DRn7I6lrL5TYt4ih-78" value="M" style="edgeLabel;html=1;align=center;verticalAlign=middle;resizable=0;points=[];" vertex="1" connectable="0" parent="P_m-DRn7I6lrL5TYt4ih-23">
          <mxGeometry x="-0.175" y="-1" relative="1" as="geometry">
            <mxPoint as="offset" />
          </mxGeometry>
        </mxCell>
        <mxCell id="P_m-DRn7I6lrL5TYt4ih-16" value="Select" style="shape=rhombus;perimeter=rhombusPerimeter;whiteSpace=wrap;html=1;align=center;" vertex="1" parent="1">
          <mxGeometry x="290" y="240" width="80" height="50" as="geometry" />
        </mxCell>
        <mxCell id="P_m-DRn7I6lrL5TYt4ih-19" style="edgeStyle=orthogonalEdgeStyle;rounded=0;orthogonalLoop=1;jettySize=auto;html=1;exitX=0;exitY=1;exitDx=0;exitDy=0;entryX=1;entryY=0.75;entryDx=0;entryDy=0;endArrow=none;startFill=0;" edge="1" parent="1" source="P_m-DRn7I6lrL5TYt4ih-17" target="P_m-DRn7I6lrL5TYt4ih-3">
          <mxGeometry relative="1" as="geometry" />
        </mxCell>
        <mxCell id="P_m-DRn7I6lrL5TYt4ih-75" value="M" style="edgeLabel;html=1;align=center;verticalAlign=middle;resizable=0;points=[];" vertex="1" connectable="0" parent="P_m-DRn7I6lrL5TYt4ih-19">
          <mxGeometry x="-0.301" y="1" relative="1" as="geometry">
            <mxPoint as="offset" />
          </mxGeometry>
        </mxCell>
        <mxCell id="P_m-DRn7I6lrL5TYt4ih-20" style="edgeStyle=orthogonalEdgeStyle;rounded=0;orthogonalLoop=1;jettySize=auto;html=1;exitX=1;exitY=0;exitDx=0;exitDy=0;entryX=0.5;entryY=1;entryDx=0;entryDy=0;endArrow=none;startFill=0;shape=link;" edge="1" parent="1" source="P_m-DRn7I6lrL5TYt4ih-17" target="P_m-DRn7I6lrL5TYt4ih-1">
          <mxGeometry relative="1" as="geometry" />
        </mxCell>
        <mxCell id="P_m-DRn7I6lrL5TYt4ih-83" value="N" style="edgeLabel;html=1;align=center;verticalAlign=middle;resizable=0;points=[];" vertex="1" connectable="0" parent="P_m-DRn7I6lrL5TYt4ih-20">
          <mxGeometry x="-0.4494" relative="1" as="geometry">
            <mxPoint y="1" as="offset" />
          </mxGeometry>
        </mxCell>
        <mxCell id="P_m-DRn7I6lrL5TYt4ih-17" value="Track" style="shape=rhombus;perimeter=rhombusPerimeter;whiteSpace=wrap;html=1;align=center;" vertex="1" parent="1">
          <mxGeometry x="410" y="390" width="80" height="50" as="geometry" />
        </mxCell>
        <mxCell id="P_m-DRn7I6lrL5TYt4ih-21" style="edgeStyle=orthogonalEdgeStyle;rounded=0;orthogonalLoop=1;jettySize=auto;html=1;exitX=1;exitY=0;exitDx=0;exitDy=0;entryX=0.133;entryY=1.017;entryDx=0;entryDy=0;entryPerimeter=0;endArrow=none;startFill=0;shape=link;" edge="1" parent="1" source="P_m-DRn7I6lrL5TYt4ih-15" target="P_m-DRn7I6lrL5TYt4ih-1">
          <mxGeometry relative="1" as="geometry" />
        </mxCell>
        <mxCell id="P_m-DRn7I6lrL5TYt4ih-73" value="N" style="edgeLabel;html=1;align=center;verticalAlign=middle;resizable=0;points=[];" vertex="1" connectable="0" parent="P_m-DRn7I6lrL5TYt4ih-21">
          <mxGeometry x="-0.0602" y="1" relative="1" as="geometry">
            <mxPoint y="1" as="offset" />
          </mxGeometry>
        </mxCell>
        <mxCell id="P_m-DRn7I6lrL5TYt4ih-48" style="edgeStyle=orthogonalEdgeStyle;rounded=0;orthogonalLoop=1;jettySize=auto;html=1;exitX=1;exitY=1;exitDx=0;exitDy=0;entryX=0.25;entryY=0;entryDx=0;entryDy=0;endArrow=none;startFill=0;" edge="1" parent="1" source="P_m-DRn7I6lrL5TYt4ih-28" target="P_m-DRn7I6lrL5TYt4ih-4">
          <mxGeometry relative="1" as="geometry" />
        </mxCell>
        <mxCell id="P_m-DRn7I6lrL5TYt4ih-28" value="Whishlist" style="ellipse;whiteSpace=wrap;html=1;" vertex="1" parent="1">
          <mxGeometry x="-280" y="260" width="80" height="40" as="geometry" />
        </mxCell>
        <mxCell id="P_m-DRn7I6lrL5TYt4ih-29" value="Review" style="ellipse;whiteSpace=wrap;html=1;" vertex="1" parent="1">
          <mxGeometry x="-330" y="320" width="80" height="40" as="geometry" />
        </mxCell>
        <mxCell id="P_m-DRn7I6lrL5TYt4ih-52" style="edgeStyle=orthogonalEdgeStyle;rounded=0;orthogonalLoop=1;jettySize=auto;html=1;exitX=0.5;exitY=0;exitDx=0;exitDy=0;entryX=0.5;entryY=1;entryDx=0;entryDy=0;endArrow=none;startFill=0;" edge="1" parent="1" source="P_m-DRn7I6lrL5TYt4ih-32" target="P_m-DRn7I6lrL5TYt4ih-3">
          <mxGeometry relative="1" as="geometry" />
        </mxCell>
        <mxCell id="P_m-DRn7I6lrL5TYt4ih-32" value="name" style="ellipse;whiteSpace=wrap;html=1;" vertex="1" parent="1">
          <mxGeometry x="110" y="510" width="80" height="40" as="geometry" />
        </mxCell>
        <mxCell id="P_m-DRn7I6lrL5TYt4ih-51" style="edgeStyle=orthogonalEdgeStyle;rounded=0;orthogonalLoop=1;jettySize=auto;html=1;exitX=0.5;exitY=0;exitDx=0;exitDy=0;entryX=0.25;entryY=1;entryDx=0;entryDy=0;endArrow=none;startFill=0;" edge="1" parent="1" source="P_m-DRn7I6lrL5TYt4ih-33" target="P_m-DRn7I6lrL5TYt4ih-3">
          <mxGeometry relative="1" as="geometry" />
        </mxCell>
        <mxCell id="P_m-DRn7I6lrL5TYt4ih-33" value="Cid" style="ellipse;whiteSpace=wrap;html=1;" vertex="1" parent="1">
          <mxGeometry x="10" y="500" width="80" height="40" as="geometry" />
        </mxCell>
        <mxCell id="P_m-DRn7I6lrL5TYt4ih-34" value="Total item" style="ellipse;whiteSpace=wrap;html=1;" vertex="1" parent="1">
          <mxGeometry x="640" y="330" width="80" height="40" as="geometry" />
        </mxCell>
        <mxCell id="P_m-DRn7I6lrL5TYt4ih-59" style="edgeStyle=orthogonalEdgeStyle;rounded=0;orthogonalLoop=1;jettySize=auto;html=1;exitX=1;exitY=1;exitDx=0;exitDy=0;entryX=0;entryY=0;entryDx=0;entryDy=0;endArrow=none;startFill=0;" edge="1" parent="1" source="P_m-DRn7I6lrL5TYt4ih-35" target="P_m-DRn7I6lrL5TYt4ih-39">
          <mxGeometry relative="1" as="geometry" />
        </mxCell>
        <mxCell id="P_m-DRn7I6lrL5TYt4ih-35" value="Shipped" style="ellipse;whiteSpace=wrap;html=1;" vertex="1" parent="1">
          <mxGeometry x="540" y="150" width="80" height="40" as="geometry" />
        </mxCell>
        <mxCell id="P_m-DRn7I6lrL5TYt4ih-57" style="edgeStyle=orthogonalEdgeStyle;rounded=0;orthogonalLoop=1;jettySize=auto;html=1;exitX=0;exitY=0.5;exitDx=0;exitDy=0;entryX=1;entryY=0;entryDx=0;entryDy=0;endArrow=none;startFill=0;" edge="1" parent="1" source="P_m-DRn7I6lrL5TYt4ih-36" target="P_m-DRn7I6lrL5TYt4ih-39">
          <mxGeometry relative="1" as="geometry" />
        </mxCell>
        <mxCell id="P_m-DRn7I6lrL5TYt4ih-36" value="Pending" style="ellipse;whiteSpace=wrap;html=1;" vertex="1" parent="1">
          <mxGeometry x="710" y="180" width="80" height="40" as="geometry" />
        </mxCell>
        <mxCell id="P_m-DRn7I6lrL5TYt4ih-58" style="edgeStyle=orthogonalEdgeStyle;rounded=0;orthogonalLoop=1;jettySize=auto;html=1;exitX=0;exitY=1;exitDx=0;exitDy=0;entryX=0.5;entryY=0;entryDx=0;entryDy=0;endArrow=none;startFill=0;" edge="1" parent="1" source="P_m-DRn7I6lrL5TYt4ih-37" target="P_m-DRn7I6lrL5TYt4ih-39">
          <mxGeometry relative="1" as="geometry" />
        </mxCell>
        <mxCell id="P_m-DRn7I6lrL5TYt4ih-37" value="Delivered" style="ellipse;whiteSpace=wrap;html=1;" vertex="1" parent="1">
          <mxGeometry x="650" y="140" width="80" height="40" as="geometry" />
        </mxCell>
        <mxCell id="P_m-DRn7I6lrL5TYt4ih-56" style="edgeStyle=orthogonalEdgeStyle;rounded=0;orthogonalLoop=1;jettySize=auto;html=1;exitX=0;exitY=1;exitDx=0;exitDy=0;entryX=0.75;entryY=0;entryDx=0;entryDy=0;endArrow=none;startFill=0;" edge="1" parent="1" source="P_m-DRn7I6lrL5TYt4ih-39" target="P_m-DRn7I6lrL5TYt4ih-1">
          <mxGeometry relative="1" as="geometry" />
        </mxCell>
        <mxCell id="P_m-DRn7I6lrL5TYt4ih-39" value="Status" style="ellipse;whiteSpace=wrap;html=1;" vertex="1" parent="1">
          <mxGeometry x="620" y="200" width="80" height="40" as="geometry" />
        </mxCell>
        <mxCell id="P_m-DRn7I6lrL5TYt4ih-55" style="edgeStyle=orthogonalEdgeStyle;rounded=0;orthogonalLoop=1;jettySize=auto;html=1;exitX=0;exitY=0.5;exitDx=0;exitDy=0;entryX=1;entryY=0.5;entryDx=0;entryDy=0;endArrow=none;startFill=0;" edge="1" parent="1" source="P_m-DRn7I6lrL5TYt4ih-40" target="P_m-DRn7I6lrL5TYt4ih-1">
          <mxGeometry relative="1" as="geometry" />
        </mxCell>
        <mxCell id="P_m-DRn7I6lrL5TYt4ih-40" value="Quantity" style="ellipse;whiteSpace=wrap;html=1;" vertex="1" parent="1">
          <mxGeometry x="670" y="270" width="80" height="40" as="geometry" />
        </mxCell>
        <mxCell id="P_m-DRn7I6lrL5TYt4ih-41" value="Pname" style="ellipse;whiteSpace=wrap;html=1;" vertex="1" parent="1">
          <mxGeometry x="440" y="40" width="80" height="40" as="geometry" />
        </mxCell>
        <mxCell id="P_m-DRn7I6lrL5TYt4ih-60" style="edgeStyle=orthogonalEdgeStyle;rounded=0;orthogonalLoop=1;jettySize=auto;html=1;exitX=0;exitY=1;exitDx=0;exitDy=0;entryX=0.5;entryY=0;entryDx=0;entryDy=0;endArrow=none;startFill=0;" edge="1" parent="1" source="P_m-DRn7I6lrL5TYt4ih-42" target="P_m-DRn7I6lrL5TYt4ih-2">
          <mxGeometry relative="1" as="geometry" />
        </mxCell>
        <mxCell id="P_m-DRn7I6lrL5TYt4ih-42" value="Pid" style="ellipse;whiteSpace=wrap;html=1;fontStyle=4" vertex="1" parent="1">
          <mxGeometry x="340" y="20" width="80" height="40" as="geometry" />
        </mxCell>
        <mxCell id="P_m-DRn7I6lrL5TYt4ih-62" style="edgeStyle=orthogonalEdgeStyle;rounded=0;orthogonalLoop=1;jettySize=auto;html=1;exitX=0;exitY=0.5;exitDx=0;exitDy=0;entryX=1;entryY=0.5;entryDx=0;entryDy=0;endArrow=none;startFill=0;" edge="1" parent="1" source="P_m-DRn7I6lrL5TYt4ih-44" target="P_m-DRn7I6lrL5TYt4ih-2">
          <mxGeometry relative="1" as="geometry" />
        </mxCell>
        <mxCell id="P_m-DRn7I6lrL5TYt4ih-44" value="Price" style="ellipse;whiteSpace=wrap;html=1;" vertex="1" parent="1">
          <mxGeometry x="460" y="100" width="80" height="40" as="geometry" />
        </mxCell>
        <mxCell id="P_m-DRn7I6lrL5TYt4ih-49" style="edgeStyle=orthogonalEdgeStyle;rounded=0;orthogonalLoop=1;jettySize=auto;html=1;exitX=1;exitY=0.5;exitDx=0;exitDy=0;entryX=0.025;entryY=0.4;entryDx=0;entryDy=0;entryPerimeter=0;endArrow=none;startFill=0;" edge="1" parent="1" source="P_m-DRn7I6lrL5TYt4ih-29" target="P_m-DRn7I6lrL5TYt4ih-4">
          <mxGeometry relative="1" as="geometry" />
        </mxCell>
        <mxCell id="P_m-DRn7I6lrL5TYt4ih-54" style="edgeStyle=orthogonalEdgeStyle;rounded=0;orthogonalLoop=1;jettySize=auto;html=1;exitX=0;exitY=0;exitDx=0;exitDy=0;entryX=0.917;entryY=1;entryDx=0;entryDy=0;entryPerimeter=0;endArrow=none;startFill=0;" edge="1" parent="1" source="P_m-DRn7I6lrL5TYt4ih-34" target="P_m-DRn7I6lrL5TYt4ih-1">
          <mxGeometry relative="1" as="geometry" />
        </mxCell>
        <mxCell id="P_m-DRn7I6lrL5TYt4ih-61" style="edgeStyle=orthogonalEdgeStyle;rounded=0;orthogonalLoop=1;jettySize=auto;html=1;exitX=0;exitY=1;exitDx=0;exitDy=0;entryX=0.95;entryY=0;entryDx=0;entryDy=0;entryPerimeter=0;endArrow=none;startFill=0;" edge="1" parent="1" source="P_m-DRn7I6lrL5TYt4ih-41" target="P_m-DRn7I6lrL5TYt4ih-2">
          <mxGeometry relative="1" as="geometry" />
        </mxCell>
        <mxCell id="P_m-DRn7I6lrL5TYt4ih-63" value="Email" style="ellipse;shape=doubleEllipse;margin=3;whiteSpace=wrap;html=1;align=center;" vertex="1" parent="1">
          <mxGeometry x="200" y="490" width="100" height="40" as="geometry" />
        </mxCell>
        <mxCell id="P_m-DRn7I6lrL5TYt4ih-64" style="edgeStyle=orthogonalEdgeStyle;rounded=0;orthogonalLoop=1;jettySize=auto;html=1;exitX=0;exitY=0;exitDx=0;exitDy=0;entryX=0.883;entryY=1.033;entryDx=0;entryDy=0;entryPerimeter=0;endArrow=none;startFill=0;" edge="1" parent="1" source="P_m-DRn7I6lrL5TYt4ih-63" target="P_m-DRn7I6lrL5TYt4ih-3">
          <mxGeometry relative="1" as="geometry" />
        </mxCell>
        <mxCell id="P_m-DRn7I6lrL5TYt4ih-65" value="Shopping Address" style="ellipse;shape=doubleEllipse;margin=3;whiteSpace=wrap;html=1;align=center;" vertex="1" parent="1">
          <mxGeometry x="-370" y="390" width="120" height="40" as="geometry" />
        </mxCell>
        <mxCell id="P_m-DRn7I6lrL5TYt4ih-66" style="edgeStyle=orthogonalEdgeStyle;rounded=0;orthogonalLoop=1;jettySize=auto;html=1;exitX=1;exitY=0.5;exitDx=0;exitDy=0;entryX=0.2;entryY=1.067;entryDx=0;entryDy=0;entryPerimeter=0;endArrow=none;startFill=0;" edge="1" parent="1" source="P_m-DRn7I6lrL5TYt4ih-65" target="P_m-DRn7I6lrL5TYt4ih-4">
          <mxGeometry relative="1" as="geometry" />
        </mxCell>
      </root>
    </mxGraphModel>
  </diagram>
</mxfile>
